<svg id="Camada_1" data-name="Camada 1" xmlns="http://www.w3.org/2000/svg" viewBox="0 0 153.02 184.91"><defs><style>.cls-1{fill:#b22323;}.cls-2{fill:#114b93;}.cls-3{fill:#018cd3;}</style></defs><path class="cls-1" d="M4.49,103.5C4.24,59.37,35.53,21.32,79,12.64c3.92-.78,8-1.32,11.66,1,4.23,2.68,6.63,6.57,6,11.69-.67,6-4.38,9.85-10.54,11C67,39.84,51.54,49.35,40.42,65.51c-18.64,27.12-15,63.52,8.74,87.13a68.26,68.26,0,0,0,86.49,7.7c3.8-2.64,7.58-5.05,12.4-3.71,4.61,1.29,7.95,4.15,9,9,1.33,6.14-1.3,10.65-6.21,14.08a94.52,94.52,0,0,1-31,14.3C65.19,207.87,10.35,169.57,4.54,113.47A97.48,97.48,0,0,1,4.49,103.5Z" transform="translate(-4.37 -11.97)"/><path class="cls-2" d="M98.44,46c8.54-.24,17.58,2.25,26.06,6.73,6.58,3.48,8.89,10.82,5.65,16.92-3.36,6.33-10.25,8.59-17,4.94C91.5,62.91,66.32,77.45,63.66,100.82c-1.66,14.67,7.86,29.45,23.21,34.91,7.73,2.75,11.32,8.38,9.57,15-1.94,7.34-8.34,10.95-15.69,8.84-27.63-7.91-45.57-35.71-41.3-64C43.76,67,68.34,45.93,98.44,46Z" transform="translate(-4.37 -11.97)"/><path class="cls-3" d="M72.25,103.8c.09-14,11-24.68,25.14-24.59A24.73,24.73,0,1,1,72.25,103.8Z" transform="translate(-4.37 -11.97)"/></svg>