<svg id="Camada_1" data-name="Camada 1" xmlns="http://www.w3.org/2000/svg" xmlns:xlink="http://www.w3.org/1999/xlink" viewBox="0 0 642 584"><defs><style>.cls-1{fill:none;}.cls-2{clip-path:url(#clip-path);}.cls-3{fill:#fff;}</style><clipPath id="clip-path"><rect class="cls-1" x="24.29" y="16" width="593.42" height="543.06"/></clipPath></defs><g id="surface1"><g class="cls-2"><path class="cls-3" d="M320.28,17.16a11.31,11.31,0,0,0-2.32.27,10.94,10.94,0,0,0-4.24,1.85,12.65,12.65,0,0,0-1.77,1.5,12.45,12.45,0,0,0-2.51,3.88,11.49,11.49,0,0,0-.64,2.22,12.15,12.15,0,0,0-.19,2.33V190l-50.86-50.83a12.15,12.15,0,0,0-13.06-2.71,12.14,12.14,0,0,0-3.9,2.59,11.32,11.32,0,0,0-1.48,1.82,12.43,12.43,0,0,0-1.16,2.08,11.44,11.44,0,0,0-.67,2.32,11.25,11.25,0,0,0-.21,2.32,12,12,0,0,0,.26,2.32,11.67,11.67,0,0,0,.71,2.24,12.15,12.15,0,0,0,1.16,2,11.88,11.88,0,0,0,1.52,1.79L312,227a12,12,0,0,0,3.84,2.56,12.26,12.26,0,0,0,2.23.69,12.48,12.48,0,0,0,4.64,0,12.06,12.06,0,0,0,2.21-.69,11.6,11.6,0,0,0,2.06-1.09,11.4,11.4,0,0,0,1.78-1.47l71.09-71a12.38,12.38,0,0,0,1.53-1.79,11.5,11.5,0,0,0,1.16-2,11,11,0,0,0,.72-2.24,11.57,11.57,0,0,0,.05-4.64,13.1,13.1,0,0,0-.66-2.32,13.37,13.37,0,0,0-1.11-2.08,13,13,0,0,0-1.49-1.82,12.33,12.33,0,0,0-1.82-1.49,12.12,12.12,0,0,0-2.08-1.16,12.61,12.61,0,0,0-2.25-.66,12.07,12.07,0,0,0-4.64,0,11.47,11.47,0,0,0-4.3,1.87,10.76,10.76,0,0,0-1.78,1.52L332.33,190V29.16a12.83,12.83,0,0,0-.21-2.32,12.48,12.48,0,0,0-.66-2.26,11.54,11.54,0,0,0-1.17-2.09,11,11,0,0,0-1.49-1.84,12,12,0,0,0-3.92-2.6,11.7,11.7,0,0,0-2.33-.66A11.5,11.5,0,0,0,320.28,17.16Zm-130,142.16a11.81,11.81,0,0,0-4.28.83L91.6,195.51h-.17l-.22.09a11.91,11.91,0,0,0-4.51,2.75,11.65,11.65,0,0,0-2.87,4.45h0L26.09,295.19a11.81,11.81,0,0,0,3.71,16.3,11.09,11.09,0,0,0,2.24,1.1l51.48,18.87V467.23a11.81,11.81,0,0,0,7.75,11.09l217.35,80.07V331l10.87-17.4c.34,0,.63-.19,1-.19s.62.16,1,.19L332.31,331V558.39l217.34-80.07a11.83,11.83,0,0,0,7.72-11.09V331.46l51.49-18.94a11.8,11.8,0,0,0,7.06-15.12,12.06,12.06,0,0,0-1.12-2.28L557.14,203v-.09a11.49,11.49,0,0,0-2.87-4.48,11.71,11.71,0,0,0-4.53-2.79l-.33-.1L455,160.09a11.49,11.49,0,0,0-4.64-.82,12.53,12.53,0,0,0-2,.25,11.29,11.29,0,0,0-2,.58,12.42,12.42,0,0,0-1.83.9,12.26,12.26,0,0,0-3.05,2.69,13.07,13.07,0,0,0-1.16,1.7,12.51,12.51,0,0,0-.83,1.87,12.1,12.1,0,0,0-.5,2,11.59,11.59,0,0,0-.13,2,10.65,10.65,0,0,0,.19,2,12.14,12.14,0,0,0,.55,2,12.29,12.29,0,0,0,2,3.51,11.51,11.51,0,0,0,3.13,2.6,12.49,12.49,0,0,0,1.85.87l65,24.36L320.47,277,129.36,206.65l65-24.37a12.82,12.82,0,0,0,1.88-.87,12.24,12.24,0,0,0,1.71-1.16,11.27,11.27,0,0,0,1.47-1.46,12,12,0,0,0,1.16-1.68,12.92,12.92,0,0,0,.89-1.88,13.73,13.73,0,0,0,.54-2,12.45,12.45,0,0,0,0-4.13,13.57,13.57,0,0,0-.53-2,12.87,12.87,0,0,0-.88-1.88,11.56,11.56,0,0,0-1.17-1.69,11.92,11.92,0,0,0-1.46-1.47,13,13,0,0,0-1.69-1.16,13.32,13.32,0,0,0-1.88-.87,11.64,11.64,0,0,0-2-.52,11.51,11.51,0,0,0-2.11-.2Zm-90,61.91,202.37,74.53-46.42,74.17L53.9,295.37Zm440.28,0L587,295.43,384.65,369.87,338.23,295.7Z"/></g></g></svg>