<svg id="Camada_1" data-name="Camada 1" xmlns="http://www.w3.org/2000/svg" xmlns:xlink="http://www.w3.org/1999/xlink" viewBox="0 0 642 584"><defs><style>.cls-1{fill:none;}.cls-2{clip-path:url(#clip-path);}.cls-3{fill:#fff;}</style><clipPath id="clip-path"><rect class="cls-1" x="86.37" y="49" width="509.75" height="509.75"/></clipPath></defs><g id="surface1"><g class="cls-2"><path class="cls-3" d="M153.12,49a24.3,24.3,0,0,0-21,12L89.69,133.86a24.22,24.22,0,0,0-3.31,12.23V437.37a48.62,48.62,0,0,0,48.53,48.55H312a169.49,169.49,0,0,1-7.17-48.55H134.91V194.64H474.75v72.81a169.93,169.93,0,0,1,48.55,7.2V146.09A24.33,24.33,0,0,0,520,133.86L477.51,61a24.3,24.3,0,0,0-21-12Zm13.94,48.54H442.61l28.27,48.55H138.76Zm65,145.65v48.54H377.66V243.19ZM474.78,316A121.38,121.38,0,1,0,596.13,437.42v-.05A121.39,121.39,0,0,0,474.75,316Zm49.76,64.34,33.93,34L462.6,510.2,391,438.63l33.92-34,37.64,37.59Z"/></g></g></svg>