<svg id="Camada_1" data-name="Camada 1" xmlns="http://www.w3.org/2000/svg" xmlns:xlink="http://www.w3.org/1999/xlink" viewBox="0 0 642 584"><defs><style>.cls-1{fill:none;}.cls-2{fill:#fff;}.cls-3{clip-path:url(#clip-path);}</style><clipPath id="clip-path"><rect class="cls-1" x="392.06" y="186" width="240.19" height="289"/></clipPath></defs><g id="surface1"><path class="cls-2" d="M220.44,486.3c0,1.81-.09,3.61-.26,5.4a53.49,53.49,0,0,1-.8,5.35,52.15,52.15,0,0,1-1.32,5.24c-.52,1.73-1.13,3.42-1.82,5.09s-1.46,3.3-2.31,4.89-1.78,3.13-2.78,4.63a54.8,54.8,0,0,1-6.85,8.34c-1.27,1.27-2.61,2.48-4,3.63s-2.84,2.21-4.34,3.22-3.05,1.92-4.64,2.78a53,53,0,0,1-4.88,2.31c-1.66.69-3.36,1.29-5.09,1.82a43.62,43.62,0,0,1-5.24,1.31,55.5,55.5,0,0,1-21.49,0,52.79,52.79,0,0,1-5.24-1.31c-1.73-.53-3.42-1.13-5.09-1.82s-3.29-1.46-4.88-2.31-3.14-1.78-4.64-2.78-3-2.08-4.34-3.22-2.73-2.36-4-3.63a54.8,54.8,0,0,1-6.85-8.34q-1.5-2.25-2.78-4.63t-2.31-4.89c-.69-1.67-1.3-3.36-1.82-5.09a47.82,47.82,0,0,1-1.32-5.24c-.32-1.77-.61-3.55-.79-5.35s-.26-3.59-.26-5.4.09-3.6.26-5.4a52.85,52.85,0,0,1,.79-5.34,53.74,53.74,0,0,1,1.32-5.25c.53-1.73,1.13-3.42,1.82-5.09s1.46-3.29,2.31-4.88,1.78-3.14,2.78-4.64a54.77,54.77,0,0,1,6.85-8.34,51,51,0,0,1,4-3.63,52.37,52.37,0,0,1,4.34-3.22q2.25-1.5,4.64-2.78c1.59-.85,3.21-1.62,4.88-2.31s3.36-1.3,5.09-1.82a47.82,47.82,0,0,1,5.24-1.32c1.77-.32,3.55-.61,5.35-.79a55.57,55.57,0,0,1,10.79,0q2.7.27,5.35.79c1.77.36,3.51.79,5.24,1.32s3.42,1.13,5.09,1.82,3.29,1.46,4.88,2.31,3.14,1.78,4.64,2.78a55.05,55.05,0,0,1,15.2,15.18q1.5,2.25,2.78,4.64t2.31,4.88c.67,1.67,1.27,3.36,1.82,5.09a56.11,56.11,0,0,1,2.11,10.59C220.35,482.69,220.44,484.5,220.44,486.3Z"/><path class="cls-2" d="M555.63,486.3c0,1.81-.09,3.61-.26,5.4a53.9,53.9,0,0,1-.79,5.35,52.84,52.84,0,0,1-1.32,5.24c-.53,1.73-1.13,3.42-1.82,5.09s-1.46,3.3-2.31,4.89-1.78,3.13-2.78,4.63a55.54,55.54,0,0,1-6.84,8.34c-1.27,1.27-2.61,2.48-4,3.63s-2.84,2.21-4.34,3.22-3,1.92-4.64,2.78-3.22,1.62-4.88,2.31-3.36,1.29-5.09,1.82a43.62,43.62,0,0,1-5.24,1.31,55.5,55.5,0,0,1-21.49,0,53.49,53.49,0,0,1-5.24-1.31c-1.72-.53-3.42-1.13-5.09-1.82s-3.29-1.46-4.88-2.31-3.14-1.78-4.64-2.78-3-2.08-4.34-3.22-2.73-2.36-4-3.63a52.8,52.8,0,0,1-3.63-4c-1.14-1.39-2.22-2.84-3.22-4.34a49.76,49.76,0,0,1-2.78-4.63c-.85-1.63-1.62-3.22-2.31-4.89s-1.29-3.36-1.82-5.09a43.62,43.62,0,0,1-1.31-5.24,53.49,53.49,0,0,1-.8-5.35c-.17-1.79-.26-3.59-.26-5.4s.09-3.6.26-5.4a53.73,53.73,0,0,1,.8-5.34q.53-2.65,1.31-5.25c.53-1.72,1.13-3.42,1.82-5.09s1.46-3.29,2.31-4.88,1.78-3.14,2.78-4.64,2.08-2.95,3.22-4.34a55.05,55.05,0,0,1,16.6-13.67c1.59-.85,3.21-1.62,4.88-2.31s3.36-1.29,5.09-1.82a46.18,46.18,0,0,1,5.24-1.32c1.76-.32,3.55-.61,5.35-.79a55.57,55.57,0,0,1,10.79,0q2.7.27,5.35.79c1.77.36,3.52.79,5.24,1.32s3.42,1.13,5.09,1.82a55.44,55.44,0,0,1,9.52,5.09,54.8,54.8,0,0,1,8.34,6.85c1.27,1.27,2.48,2.61,3.62,4a52.37,52.37,0,0,1,3.22,4.34q1.5,2.25,2.78,4.64t2.31,4.88a53.07,53.07,0,0,1,1.82,5.09,45.81,45.81,0,0,1,1.32,5.25c.32,1.77.61,3.55.79,5.34S555.63,484.5,555.63,486.3Z"/><g class="cls-3"><path class="cls-2" d="M613.06,282.76l-52.68-71.84c-12-14.37-19.15-23.95-35.91-23.95H416.77c-14.37,0-23.94,9.58-23.94,23.95V450.38a24,24,0,0,0,23.94,23.95c4.79-40.71,40.7-74.24,83.8-74.24s79,31.14,83.79,74.24h24c14.36,0,23.94-9.58,23.94-23.95V330.69C632.25,309.1,613.06,282.76,613.06,282.76ZM464.65,330.69V234.86h57.46c4.79,0,9.58,4.79,9.58,4.79L582,309.1c4.79,7.18,9.58,14.37,9.58,21.55Z"/></g><rect class="cls-1" x="9.75" y="91" width="359.31" height="384"/><path class="cls-2" d="M344.94,91.18H33.69c-14.36,0-23.94,9.58-23.94,24v335.2c0,14.37,9.58,23.95,23.94,23.95H81.58c4.78-40.71,40.7-74.24,83.79-74.24s79,33.53,83.8,74.24h95.77c14.37,0,23.94-9.58,23.94-23.95V115.13C368.88,100.76,359.31,91.18,344.94,91.18Z"/></g></svg>