<svg id="Camada_1" data-name="Camada 1" xmlns="http://www.w3.org/2000/svg" viewBox="0 0 642 584"><defs><style>.cls-1{fill:#fff;}.cls-2{fill:#fefefe;}</style></defs><path class="cls-1" d="M445.9,194c-14.9-15.13-30-30.08-44.85-45.25-10.82-11-20.26-9.82-29.83.06-23.25,24-47.19,47.33-70.68,71.1-3.07,3.11-4.73,2.88-7.61-.1-9.82-10.15-19.88-20-29.84-30-7.8-7.78-16.91-8.1-24.74-.38-15.83,15.62-31.48,31.39-47.13,47.18-3.31,3.32-5.71,7.23-5.32,11.94-.11,5.24,2,9.06,5.44,12.5q46.4,46.29,92.68,92.67c8.59,8.6,17,8.53,25.57,0q19.2-19.14,38.36-38.38,48.42-48.47,96.86-97C452.52,210.64,453,201.24,445.9,194Zm-37.34,15.23q-33.93,34-67.91,68c-13.5,13.5-27.12,27-40.57,40.69-2.45,2.45-3.92,2.82-6.6.12q-32.66-33-65.62-65.68c-2.46-2.46-3-4-.19-6.63,6.79-6.42,13.38-13.06,19.84-19.81,2.37-2.46,3.89-2.52,6.3,0,9.74,10,19.64,19.77,29.46,29.64,9.2,9.21,17.65,9.15,27-.17,23.94-24,47.94-47.87,71.74-71.93,3.17-3.19,5-3.08,8,.1,6,6.5,12.49,12.63,18.76,18.92,1,1,1.8,2,2.53,2.88-.25,2-1.63,2.84-2.71,3.9ZM445.9,194c-14.9-15.13-30-30.08-44.85-45.25-10.82-11-20.26-9.82-29.83.06-23.25,24-47.19,47.33-70.68,71.1-3.07,3.11-4.73,2.88-7.61-.1-9.82-10.15-19.88-20-29.84-30-7.8-7.78-16.91-8.1-24.74-.38-15.83,15.62-31.48,31.39-47.13,47.18-3.31,3.32-5.71,7.23-5.32,11.94-.11,5.24,2,9.06,5.44,12.5q46.4,46.29,92.68,92.67c8.59,8.6,17,8.53,25.57,0q19.2-19.14,38.36-38.38,48.42-48.47,96.86-97C452.52,210.64,453,201.24,445.9,194Zm-37.34,15.23q-33.93,34-67.91,68c-13.5,13.5-27.12,27-40.57,40.69-2.45,2.45-3.92,2.82-6.6.12q-32.66-33-65.62-65.68c-2.46-2.46-3-4-.19-6.63,6.79-6.42,13.38-13.06,19.84-19.81,2.37-2.46,3.89-2.52,6.3,0,9.74,10,19.64,19.77,29.46,29.64,9.2,9.21,17.65,9.15,27-.17,23.94-24,47.94-47.87,71.74-71.93,3.17-3.19,5-3.08,8,.1,6,6.5,12.49,12.63,18.76,18.92,1,1,1.8,2,2.53,2.88-.25,2-1.63,2.84-2.71,3.9ZM585,443.12c-9.82-10.42-20.11-20.54-30.27-30.69q-27.44-27.43-55-54.81a8.35,8.35,0,0,1-3-5.52c-.24-4.91-.46-9.82-1.06-14.65-.47-3.76.94-5.88,4.19-7.69,6.42-3.57,12.66-7.49,18.82-11.48,7.86-5.09,10.08-11.8,6.78-20.63-2.69-7.16-5.44-14.34-8.75-21.23-1.78-3.68-.63-5.91,1.65-8.47q7.07-7.87,13.9-16c6.76-7.9,6.55-16.21-.37-23.93-4.8-5.37-9.4-10.9-14.2-16.27a6.06,6.06,0,0,1-1.23-7.36c3.18-7.13,6.21-14.34,9-21.64,3.38-9,.6-16.24-7.58-21.18-6.14-3.68-12.22-7.6-18.42-11.18-2.86-1.64-4.13-3.57-3.78-7,.81-7.76,1.3-15.56,2-23.7.13-8.59-4.06-14.58-12.71-16.94-7.52-2-15.13-3.79-22.75-5.45-3-.72-4.7-2-5.29-5.22-1.52-7.65-3.46-15.23-5.36-22.79-1.94-7.77-8.3-13.18-15.86-12.9-8.4.33-16.78,1.13-25.14,2.1-2.87.33-4.55-.2-6-2.71-4-6.88-8.11-13.71-12.43-20.4-5.18-8-12.69-10.3-21.46-6.73-7.09,2.87-14.21,5.7-21.15,8.87a5.13,5.13,0,0,1-6.5-1c-5.58-5-11.38-9.82-17.07-14.66-7.52-6.47-15.12-6.83-22.83-.63-6.14,4.91-12,10-17.78,15.22-2.28,2.07-4.1,2.4-6.93,1.12-7.36-3.35-14.86-6.55-22.46-9.36-8.21-3.06-15.6-.19-20.1,7.19-4.22,6.93-8.5,13.83-12.63,20.87-1.06,1.79-2.18,2.73-4.35,2.53-7.92-.78-15.86-1.23-23.76-2.2a16.54,16.54,0,0,0-18.29,11.92c-2,7.69-3.94,15.43-5.53,23.21-.69,3.34-2.21,5-5.49,5.72-7.37,1.57-14.66,3.18-21.87,5.14-10,2.7-13.73,7.77-13.26,18,.37,7.94,1.14,15.87,1.88,23.79.24,2.67-.75,4.15-3.06,5.47-6.49,3.76-12.84,7.77-19.22,11.72-9.12,5.64-11.46,13.24-7.2,23.17,2.84,6.61,5.52,13.3,8.47,19.86,1.23,2.79.81,4.74-1.22,7-5.42,6-10.71,12.19-15.8,18.51a16,16,0,0,0,.33,20.72c5.12,6.14,10.11,12.27,15.56,18.11,2.37,2.52,2.26,4.48,1,7.27q-4.63,10.26-8.83,20.71c-3.58,8.87-1.22,16.34,6.83,21.47,6.59,4.19,13.28,8.21,20,12.14a5.43,5.43,0,0,1,3.09,6c-.47,4.56-.68,9.15-1.06,13.73a12.17,12.17,0,0,1-3.91,8Q86.3,399.32,45.29,440.5c-10.72,10.74-7.37,24.22,7,29C72,476,91.74,482.68,111.51,489.13a7.57,7.57,0,0,1,5.5,5.38c6,18.64,12.28,37.21,18.51,55.8,1.23,3.62,2.12,7.42,4.44,10.54,6.06,8.13,17.51,8.41,25.32.61q57.15-57.29,114.24-114.62c3.53-3.56,5.74-3.17,9-.22,4.74,4.34,9.66,8.48,14.57,12.64,6.62,5.62,14.11,5.94,20.87.6a202.85,202.85,0,0,0,15.74-13.38c3.26-3.14,5.3-3.28,8.59.06,17.48,17.8,35.18,35.37,52.78,53q31.22,31.23,62.45,62.43c9,9,23,5.87,27.09-6.14q10.28-30,19.9-60.14a9.44,9.44,0,0,1,6.88-6.93q30.57-9.88,61-20.34C588.93,464.8,592.54,451.05,585,443.12ZM234,446.8Q197.36,483.31,160.79,520a5.24,5.24,0,0,1-1.23.56c-5.1-15.36-10.17-30.46-15.12-45.58a19,19,0,0,0-13-13.09c-14.14-4.54-28.17-9.41-42.29-14-3-1-3.83-1.74-1.23-4.37q30.69-30.46,61.13-61.14c1.84-1.85,3.69-2,6.14-1.84,11.21.88,17.82,5.88,18.34,17.9.18,4.34,2,8.59,3.08,12.93A17,17,0,0,0,195.75,424c7.88-1,15.83-1.49,23.74-2.24,1.85-.18,2.71.89,3.56,2.3,3.68,6.14,7.36,12.37,11.22,18.41,1.06,1.74,1.28,2.77-.27,4.36Zm150-50.18c-3.48,5.6-7,11.17-10.28,16.88-1.54,2.66-2.89,3.68-6.14,2.09-5.33-2.64-11.05-4.66-16.48-7-6.88-2.93-13.34-2.88-19.28,2.32-4.82,4.24-9.95,8.15-14.66,12.53-2.54,2.36-4.38,2-6.66-.07-4.7-4.16-9.51-8.2-14.23-12.27-5.69-5-12-5.61-18.78-2.69-6.05,2.59-12.18,5-18.18,7.72-2.16,1-3.25.51-4.41-1.46-3.3-5.7-6.8-11.28-10.21-16.91-4.27-7-10.9-10-19.09-8.9-5.29.72-10.69.74-16,1.55-4.23.65-5.56-1.29-6.33-4.91-1.22-6.14-2.92-12.2-4.41-18.29a15.19,15.19,0,0,0-12-11.94c-6.4-1.54-12.77-3.19-19.2-4.54-3.08-.65-4.46-1.88-4-5.26.76-5.75,1.08-11.56,1.72-17.33.92-8.34-2-14.62-9.35-18.88-5.29-3.08-10.38-6.49-15.7-9.53-2.57-1.47-2.89-3.05-1.74-5.63,2.46-5.6,4.83-11.26,7.07-17,2.87-7.27,2.46-14-3.25-20-4.2-4.44-8-9.3-12.07-13.83-1.91-2.12-2.05-3.69,0-5.9,4.11-4.53,7.92-9.44,12-13.93,5.56-6,6.28-12.69,3.36-20-2.28-5.68-4.57-11.36-7.1-16.94-1.3-2.87-.58-4.51,2-6,5.29-3.09,10.41-6.46,15.7-9.55,7.76-4.54,10.13-11.34,9-19.92-.73-5.45-.95-11-1.66-16.43-.4-3,1.07-4.06,3.6-4.65,6.55-1.52,13.11-3.07,19.64-4.73,6.3-1.6,10.43-5.47,12-11.94s3.36-13,4.8-19.64c.59-2.74,1.66-3.88,4.59-3.6,5.94.59,12,.48,17.84,1.38,9.94,1.51,15.08-3.18,18.79-9.17,3.24-5.21,6.6-10.34,9.54-15.7,1.43-2.67,2.91-3,5.41-1.88,5.76,2.46,11.61,4.79,17.37,7.29,7.36,3.24,13.94,2,19.92-3.37,4.76-4.32,9.76-8.39,14.52-12.7,1.62-1.48,2.67-1.31,4.24,0q8.3,7.29,16.81,14.27A14.76,14.76,0,0,0,348,72.79c6.88-2.55,13.68-5.34,20.42-8.25,2.31-1,3.52-.7,4.79,1.5,3,5.18,6.37,10.11,9.28,15.33,4.38,7.81,10.51,11.44,19.64,10,5.41-.89,11.05-.64,16.46-1.31,3.68-.44,5.23,1.08,5.93,4.5,1.23,6,2.7,11.93,4.15,17.87,1.67,6.85,5.75,11.32,12.79,12.91,6.55,1.5,13.07,3.15,19.64,4.61,2.76.61,3.68,2,3.23,4.91a161.15,161.15,0,0,0-1.72,21.5,14.92,14.92,0,0,0,7.27,13.5c5.68,3.69,11.31,7.37,17.18,10.6,3.22,1.75,3.54,3.39,2,6.53-2.58,5.38-4.59,11.05-7,16.48-3,6.84-2.46,13,2.45,18.81,4.3,5,8.34,10.21,12.8,15,2.23,2.39,1.83,3.89-.12,6.07-4.49,5-8.76,10.24-13.12,15.37-4.69,5.55-4.91,11.61-2.16,18.06,2.37,5.49,4.65,11.05,7.13,16.43,1.41,3.11,1.34,5.1-2.2,6.94-5.56,2.87-10.75,6.46-16.1,9.73-5.56,3.4-8.59,8.28-8.19,14.88.39,6.88.85,13.75,1.62,20.59.32,2.82-.21,4.31-3.12,4.91-5.83,1.22-11.57,2.91-17.4,4.1-8.37,1.68-13.75,6.23-15.47,14.83-1,4.91-2.16,9.82-3.31,14.73-1.53,6.5-1.55,6.5-10.24,6.13-3-.32-8.2-.86-13.37-1.42-7.23-.65-13.19,1.58-17.21,8Zm153.44,51.67c-13.62,4.58-27.21,9.28-40.91,13.57-6.78,2.14-10.75,6.25-12.87,13-4.19,13.43-8.83,26.73-13.29,40.08a15.22,15.22,0,0,1-2.45,5.46c-2.3-1.1-3.69-3.16-5.42-4.91-22.23-22.18-44.39-44.46-66.69-66.57-2.77-2.74-3.33-4.91-1.12-8.17,3.58-5.35,6.82-10.91,10.08-16.45,1.23-2.16,2.82-2.74,5.32-2.45,8.2.9,16.41,1.7,24.65,2.24,7.83.51,14.87-5.17,16.93-13.38,1.9-7.56,3.77-15.13,5.39-22.76.59-2.82,2.14-3.68,4.66-4.76,10.55-4.53,17.86-1.68,25.68,6.89,16.52,18.08,34.37,34.91,51.74,52.25,3.92,4.05,3.92,4.15-1.71,6ZM445.9,194c-14.9-15.13-30-30.08-44.85-45.25-10.82-11-20.26-9.82-29.83.06-23.25,24-47.19,47.33-70.68,71.1-3.07,3.11-4.73,2.88-7.61-.1-9.82-10.15-19.88-20-29.84-30-7.8-7.78-16.91-8.1-24.74-.38-15.83,15.62-31.48,31.39-47.13,47.18-3.31,3.32-5.71,7.23-5.32,11.94-.11,5.24,2,9.06,5.44,12.5q46.4,46.29,92.68,92.67c8.59,8.6,17,8.53,25.57,0q19.2-19.14,38.36-38.38,48.42-48.47,96.86-97C452.52,210.64,453,201.24,445.9,194Zm-37.34,15.23q-33.93,34-67.91,68c-13.5,13.5-27.12,27-40.57,40.69-2.45,2.45-3.92,2.82-6.6.12q-32.66-33-65.62-65.68c-2.46-2.46-3-4-.19-6.63,6.79-6.42,13.38-13.06,19.84-19.81,2.37-2.46,3.89-2.52,6.3,0,9.74,10,19.64,19.77,29.46,29.64,9.2,9.21,17.65,9.15,27-.17,23.94-24,47.94-47.87,71.74-71.93,3.17-3.19,5-3.08,8,.1,6,6.5,12.49,12.63,18.76,18.92,1,1,1.8,2,2.53,2.88-.25,2-1.63,2.84-2.71,3.9ZM445.9,194c-14.9-15.13-30-30.08-44.85-45.25-10.82-11-20.26-9.82-29.83.06-23.25,24-47.19,47.33-70.68,71.1-3.07,3.11-4.73,2.88-7.61-.1-9.82-10.15-19.88-20-29.84-30-7.8-7.78-16.91-8.1-24.74-.38-15.83,15.62-31.48,31.39-47.13,47.18-3.31,3.32-5.71,7.23-5.32,11.94-.11,5.24,2,9.06,5.44,12.5q46.4,46.29,92.68,92.67c8.59,8.6,17,8.53,25.57,0q19.2-19.14,38.36-38.38,48.42-48.47,96.86-97C452.52,210.64,453,201.24,445.9,194Zm-37.34,15.23q-33.93,34-67.91,68c-13.5,13.5-27.12,27-40.57,40.69-2.45,2.45-3.92,2.82-6.6.12q-32.66-33-65.62-65.68c-2.46-2.46-3-4-.19-6.63,6.79-6.42,13.38-13.06,19.84-19.81,2.37-2.46,3.89-2.52,6.3,0,9.74,10,19.64,19.77,29.46,29.64,9.2,9.21,17.65,9.15,27-.17,23.94-24,47.94-47.87,71.74-71.93,3.17-3.19,5-3.08,8,.1,6,6.5,12.49,12.63,18.76,18.92,1,1,1.8,2,2.53,2.88-.25,2-1.63,2.84-2.71,3.9ZM445.9,194c-14.9-15.13-30-30.08-44.85-45.25-10.82-11-20.26-9.82-29.83.06-23.25,24-47.19,47.33-70.68,71.1-3.07,3.11-4.73,2.88-7.61-.1-9.82-10.15-19.88-20-29.84-30-7.8-7.78-16.91-8.1-24.74-.38-15.83,15.62-31.48,31.39-47.13,47.18-3.31,3.32-5.71,7.23-5.32,11.94-.11,5.24,2,9.06,5.44,12.5q46.4,46.29,92.68,92.67c8.59,8.6,17,8.53,25.57,0q19.2-19.14,38.36-38.38,48.42-48.47,96.86-97C452.52,210.64,453,201.24,445.9,194Zm-37.34,15.23q-33.93,34-67.91,68c-13.5,13.5-27.12,27-40.57,40.69-2.45,2.45-3.92,2.82-6.6.12q-32.66-33-65.62-65.68c-2.46-2.46-3-4-.19-6.63,6.79-6.42,13.38-13.06,19.84-19.81,2.37-2.46,3.89-2.52,6.3,0,9.74,10,19.64,19.77,29.46,29.64,9.2,9.21,17.65,9.15,27-.17,23.94-24,47.94-47.87,71.74-71.93,3.17-3.19,5-3.08,8,.1,6,6.5,12.49,12.63,18.76,18.92,1,1,1.8,2,2.53,2.88-.25,2-1.63,2.84-2.71,3.9Z"/><path class="cls-2" d="M445.9,194c-14.9-15.13-30-30.08-44.85-45.25-10.82-11-20.26-9.82-29.83.06-23.25,24-47.19,47.33-70.68,71.1-3.07,3.11-4.73,2.88-7.61-.1-9.82-10.15-19.88-20-29.84-30-7.8-7.78-16.91-8.1-24.74-.38-15.83,15.62-31.48,31.39-47.13,47.18-3.31,3.32-5.71,7.23-5.32,11.94-.11,5.24,2,9.06,5.44,12.5q46.4,46.29,92.68,92.67c8.59,8.6,17,8.53,25.57,0q19.2-19.14,38.36-38.38,48.42-48.47,96.86-97C452.52,210.64,453,201.24,445.9,194Zm-37.34,15.23q-33.93,34-67.91,68c-13.5,13.5-27.12,27-40.57,40.69-2.45,2.45-3.92,2.82-6.6.12q-32.66-33-65.62-65.68c-2.46-2.46-3-4-.19-6.63,6.79-6.42,13.38-13.06,19.84-19.81,2.37-2.46,3.89-2.52,6.3,0,9.74,10,19.64,19.77,29.46,29.64,9.2,9.21,17.65,9.15,27-.17,23.94-24,47.94-47.87,71.74-71.93,3.17-3.19,5-3.08,8,.1,6,6.5,12.49,12.63,18.76,18.92,1,1,1.8,2,2.53,2.88-.25,2-1.63,2.84-2.71,3.9Z"/><path class="cls-1" d="M445.9,194c-14.9-15.13-30-30.08-44.85-45.25-10.82-11-20.26-9.82-29.83.06-23.25,24-47.19,47.33-70.68,71.1-3.07,3.11-4.73,2.88-7.61-.1-9.82-10.15-19.88-20-29.84-30-7.8-7.78-16.91-8.1-24.74-.38-15.83,15.62-31.48,31.39-47.13,47.18-3.31,3.32-5.71,7.23-5.32,11.94-.11,5.24,2,9.06,5.44,12.5q46.4,46.29,92.68,92.67c8.59,8.6,17,8.53,25.57,0q19.2-19.14,38.36-38.38,48.42-48.47,96.86-97C452.52,210.64,453,201.24,445.9,194Zm-37.34,15.23q-33.93,34-67.91,68c-13.5,13.5-27.12,27-40.57,40.69-2.45,2.45-3.92,2.82-6.6.12q-32.66-33-65.62-65.68c-2.46-2.46-3-4-.19-6.63,6.79-6.42,13.38-13.06,19.84-19.81,2.37-2.46,3.89-2.52,6.3,0,9.74,10,19.64,19.77,29.46,29.64,9.2,9.21,17.65,9.15,27-.17,23.94-24,47.94-47.87,71.74-71.93,3.17-3.19,5-3.08,8,.1,6,6.5,12.49,12.63,18.76,18.92,1,1,1.8,2,2.53,2.88-.25,2-1.63,2.84-2.71,3.9Z"/></svg>